<svg width="63" height="19" viewBox="0 0 63 19" fill="none" xmlns="http://www.w3.org/2000/svg">
<path d="M10.9858 5.56534C10.9176 4.87784 10.625 4.34375 10.108 3.96307C9.59091 3.58239 8.8892 3.39204 8.00284 3.39204C7.40057 3.39204 6.89205 3.47727 6.47727 3.64773C6.0625 3.8125 5.74432 4.04261 5.52273 4.33807C5.30682 4.63352 5.19886 4.96875 5.19886 5.34375C5.1875 5.65625 5.25284 5.92898 5.39489 6.16193C5.54261 6.39489 5.74432 6.59659 6 6.76705C6.25568 6.93182 6.55114 7.0767 6.88636 7.2017C7.22159 7.32102 7.57955 7.4233 7.96023 7.50852L9.52841 7.88352C10.2898 8.05398 10.9886 8.28125 11.625 8.56534C12.2614 8.84943 12.8125 9.19886 13.2784 9.61364C13.7443 10.0284 14.1051 10.517 14.3608 11.0795C14.6222 11.642 14.7557 12.2869 14.7614 13.0142C14.7557 14.0824 14.483 15.0085 13.9432 15.7926C13.4091 16.571 12.6364 17.1761 11.625 17.608C10.6193 18.0341 9.40625 18.2472 7.9858 18.2472C6.5767 18.2472 5.34943 18.0312 4.30398 17.5994C3.2642 17.1676 2.4517 16.5284 1.86648 15.6818C1.28693 14.8295 0.982955 13.7756 0.954545 12.5199H4.52557C4.56534 13.1051 4.73295 13.5937 5.02841 13.9858C5.32955 14.3722 5.73011 14.6648 6.23011 14.8636C6.7358 15.0568 7.30682 15.1534 7.94318 15.1534C8.56818 15.1534 9.1108 15.0625 9.57102 14.8807C10.0369 14.6989 10.3977 14.446 10.6534 14.1222C10.9091 13.7983 11.0369 13.4261 11.0369 13.0057C11.0369 12.6136 10.9205 12.2841 10.6875 12.017C10.4602 11.75 10.125 11.5227 9.68182 11.3352C9.24432 11.1477 8.70739 10.9773 8.07102 10.8239L6.17045 10.3466C4.69886 9.98864 3.53693 9.42898 2.68466 8.66761C1.83239 7.90625 1.40909 6.88068 1.41477 5.59091C1.40909 4.53409 1.69034 3.6108 2.25852 2.82102C2.83239 2.03125 3.61932 1.41477 4.61932 0.971591C5.61932 0.528409 6.75568 0.306818 8.02841 0.306818C9.32386 0.306818 10.4545 0.528409 11.4205 0.971591C12.392 1.41477 13.1477 2.03125 13.6875 2.82102C14.2273 3.6108 14.5057 4.52557 14.5227 5.56534H10.9858ZM24.1385 4.90909V7.63636H16.255V4.90909H24.1385ZM18.0447 1.77273H21.6754V13.9773C21.6754 14.3125 21.7266 14.5739 21.8288 14.7614C21.9311 14.9432 22.0732 15.071 22.255 15.1449C22.4425 15.2187 22.6584 15.2557 22.9027 15.2557C23.0732 15.2557 23.2436 15.2415 23.4141 15.2131C23.5845 15.179 23.7152 15.1534 23.8061 15.1364L24.3771 17.8381C24.1953 17.8949 23.9396 17.9602 23.6101 18.0341C23.2805 18.1136 22.88 18.1619 22.4084 18.179C21.5334 18.2131 20.7663 18.0966 20.1072 17.8295C19.4538 17.5625 18.9453 17.1477 18.5817 16.5852C18.218 16.0227 18.0391 15.3125 18.0447 14.4545V1.77273ZM32.2777 18.2557C30.9538 18.2557 29.8089 17.9744 28.843 17.4119C27.8828 16.8437 27.1413 16.054 26.6186 15.0426C26.0959 14.0256 25.8345 12.8466 25.8345 11.5057C25.8345 10.1534 26.0959 8.97159 26.6186 7.96023C27.1413 6.94318 27.8828 6.15341 28.843 5.59091C29.8089 5.02273 30.9538 4.73864 32.2777 4.73864C33.6016 4.73864 34.7436 5.02273 35.7038 5.59091C36.6697 6.15341 37.4141 6.94318 37.9368 7.96023C38.4595 8.97159 38.7209 10.1534 38.7209 11.5057C38.7209 12.8466 38.4595 14.0256 37.9368 15.0426C37.4141 16.054 36.6697 16.8437 35.7038 17.4119C34.7436 17.9744 33.6016 18.2557 32.2777 18.2557ZM32.2947 15.4432C32.897 15.4432 33.3999 15.2727 33.8033 14.9318C34.2067 14.5852 34.5107 14.1136 34.7152 13.517C34.9254 12.9205 35.0305 12.2415 35.0305 11.4801C35.0305 10.7188 34.9254 10.0398 34.7152 9.44318C34.5107 8.84659 34.2067 8.375 33.8033 8.02841C33.3999 7.68182 32.897 7.50852 32.2947 7.50852C31.6868 7.50852 31.1754 7.68182 30.7607 8.02841C30.3516 8.375 30.0419 8.84659 29.8317 9.44318C29.6271 10.0398 29.5249 10.7188 29.5249 11.4801C29.5249 12.2415 29.6271 12.9205 29.8317 13.517C30.0419 14.1136 30.3516 14.5852 30.7607 14.9318C31.1754 15.2727 31.6868 15.4432 32.2947 15.4432ZM41.0817 18V4.90909H44.6016V7.19318H44.7379C44.9766 6.38068 45.3771 5.76705 45.9396 5.35227C46.5021 4.93182 47.1499 4.72159 47.8828 4.72159C48.0646 4.72159 48.2607 4.73295 48.4709 4.75568C48.6811 4.77841 48.8658 4.80966 49.0249 4.84943V8.07102C48.8544 8.01989 48.6186 7.97443 48.3175 7.93466C48.0163 7.89489 47.7408 7.875 47.4908 7.875C46.9567 7.875 46.4794 7.99148 46.0589 8.22443C45.6442 8.4517 45.3146 8.76989 45.0703 9.17898C44.8317 9.58807 44.7124 10.0597 44.7124 10.5938V18H41.0817ZM56.2585 18.2557C54.9119 18.2557 53.7528 17.983 52.7812 17.4375C51.8153 16.8864 51.071 16.108 50.5483 15.1023C50.0256 14.0909 49.7642 12.8949 49.7642 11.5142C49.7642 10.1676 50.0256 8.9858 50.5483 7.96875C51.071 6.9517 51.8068 6.15909 52.7557 5.59091C53.7102 5.02273 54.8295 4.73864 56.1136 4.73864C56.9773 4.73864 57.7813 4.87784 58.5256 5.15625C59.2756 5.42898 59.929 5.84091 60.4858 6.39205C61.0483 6.94318 61.4858 7.63636 61.7983 8.47159C62.1108 9.30114 62.267 10.2727 62.267 11.3864V12.3835H51.2131V10.1335H58.8494C58.8494 9.6108 58.7358 9.14773 58.5085 8.74432C58.2813 8.34091 57.9659 8.02557 57.5625 7.7983C57.1648 7.56534 56.7017 7.44886 56.1733 7.44886C55.6222 7.44886 55.1335 7.5767 54.7074 7.83239C54.2869 8.08239 53.9574 8.42045 53.7188 8.84659C53.4801 9.26705 53.358 9.7358 53.3523 10.2528V12.392C53.3523 13.0398 53.4716 13.5994 53.7102 14.071C53.9545 14.5426 54.2983 14.9062 54.7415 15.1619C55.1847 15.4176 55.7102 15.5455 56.3182 15.5455C56.7216 15.5455 57.0909 15.4886 57.4261 15.375C57.7614 15.2614 58.0483 15.0909 58.2869 14.8636C58.5256 14.6364 58.7074 14.358 58.8324 14.0284L62.1903 14.25C62.0199 15.0568 61.6705 15.7614 61.142 16.3636C60.6193 16.9602 59.9432 17.4261 59.1136 17.7614C58.2898 18.0909 57.3381 18.2557 56.2585 18.2557Z" fill="black"/>
</svg>
